<svg width="20" height="20" viewBox="0 0 20 20" fill="none" xmlns="http://www.w3.org/2000/svg">
<path fill-rule="evenodd" clip-rule="evenodd" d="M10 2.29163C9.35323 2.29163 8.72504 2.37129 8.12474 2.52133C8.12271 2.58072 8.1122 2.64018 8.09293 2.69791C7.75198 3.71901 7.4845 4.75821 7.2905 5.8077C9.09111 5.60582 10.909 5.60582 12.7096 5.80771C12.5156 4.75821 12.2481 3.71901 11.9072 2.69791C11.8877 2.63938 11.8773 2.57999 11.8752 2.52131C11.2749 2.37128 10.6468 2.29163 10 2.29163ZM12.9096 7.09051C10.9778 6.84489 9.02228 6.84489 7.09056 7.0905C6.84495 9.02222 6.84495 10.9778 7.09057 12.9095C9.02229 13.1551 10.9778 13.1551 12.9096 12.9095C13.1552 10.9778 13.1552 9.02223 12.9096 7.09051ZM5.98936 5.9893C6.1506 5.0252 6.37038 4.06854 6.64871 3.1247C6.6105 3.12362 6.57315 3.11911 6.53696 3.11146C5.01529 3.87795 3.7824 5.13381 3.04496 6.67233C4.01466 6.38276 4.99808 6.15508 5.98936 5.9893ZM2.52135 8.12484C2.58004 8.12281 2.63943 8.11241 2.69797 8.09287C3.71907 7.75192 4.75827 7.48444 5.80776 7.29044C5.60588 9.09105 5.60588 10.9089 5.80777 12.7096C4.75827 12.5156 3.71908 12.2481 2.69797 11.9071C2.64025 11.8879 2.58079 11.8774 2.52141 11.8753C2.37135 11.275 2.29169 10.6468 2.29169 9.99996C2.29169 9.35323 2.37133 8.72509 2.52135 8.12484ZM14.1924 7.29046C15.2418 7.48446 16.281 7.75192 17.3021 8.09287C17.3606 8.11241 17.42 8.12281 17.4787 8.12484C17.6287 8.72509 17.7084 9.35323 17.7084 9.99996C17.7084 10.6468 17.6287 11.275 17.4786 11.8753C17.4193 11.8774 17.3598 11.8879 17.3021 11.9071C16.281 12.2481 15.2418 12.5155 14.1924 12.7095C14.3942 10.9089 14.3942 9.09106 14.1924 7.29046ZM16.9551 6.67233C15.9854 6.38277 15.002 6.15509 14.0108 5.98932C13.845 4.99804 13.6173 4.01463 13.3277 3.04495C14.9116 3.80414 16.1959 5.08845 16.9551 6.67233ZM3.12476 13.3513C3.12368 13.3895 3.11917 13.4269 3.11153 13.463C3.85541 14.9398 5.0602 16.1446 6.53696 16.8885C6.57316 16.8808 6.61051 16.8763 6.64871 16.8752C6.37039 15.9314 6.15061 14.9748 5.98938 14.0107C5.02527 13.8495 4.0686 13.6297 3.12476 13.3513ZM12.7096 14.1923C10.909 14.3942 9.09112 14.3942 7.29052 14.1923C7.48452 15.2418 7.75199 16.2809 8.09293 17.302C8.1122 17.3597 8.12271 17.4192 8.12474 17.4786C8.72504 17.6286 9.35323 17.7083 10 17.7083C10.6468 17.7083 11.2749 17.6286 11.8752 17.4786C11.8773 17.4199 11.8877 17.3605 11.9072 17.302C12.2481 16.2809 12.5156 15.2418 12.7096 14.1923ZM13.3277 16.955C13.6173 15.9853 13.845 15.0019 14.0107 14.0107C14.9748 13.8495 15.9315 13.6297 16.8753 13.3513C16.8764 13.3895 16.8809 13.4269 16.8885 13.463C16.122 14.9847 14.8662 16.2175 13.3277 16.955ZM1.04169 9.99996C1.04169 5.05241 5.05247 1.04163 10 1.04163C14.9476 1.04163 18.9584 5.05241 18.9584 9.99996C18.9584 14.9475 14.9476 18.9583 10 18.9583C5.05247 18.9583 1.04169 14.9475 1.04169 9.99996Z" fill="#1C2B4F"/>
</svg>
